<?xml version="1.0" encoding="UTF-8"?>
<svg xmlns="http://www.w3.org/2000/svg" xmlns:xlink="http://www.w3.org/1999/xlink" width="24px" height="24px" viewBox="0 0 24 24" version="1.1">
<g id="surface1">
<path style="fill:none;stroke-width:2;stroke-linecap:round;stroke-linejoin:round;stroke:rgb(0%,0%,0%);stroke-opacity:1;stroke-miterlimit:4;" d="M 20 4 L 12 12 M 20 4 L 20 8.5 M 20 4 L 15.5 4 M 19 12.5 L 19 16.800781 C 19 17.921875 19 18.480469 18.78125 18.90625 C 18.589844 19.285156 18.285156 19.589844 17.90625 19.78125 C 17.480469 20 16.921875 20 15.800781 20 L 7.199219 20 C 6.078125 20 5.519531 20 5.09375 19.78125 C 4.714844 19.589844 4.410156 19.285156 4.21875 18.90625 C 4 18.480469 4 17.921875 4 16.800781 L 4 8.199219 C 4 7.078125 4 6.519531 4.21875 6.09375 C 4.410156 5.714844 4.714844 5.410156 5.09375 5.21875 C 5.519531 5 6.078125 5 7.199219 5 L 11.5 5 "/>
</g>
</svg>
