<?xml version="1.0" encoding="UTF-8"?>
<svg xmlns="http://www.w3.org/2000/svg" xmlns:xlink="http://www.w3.org/1999/xlink" width="32px" height="32px" viewBox="0 0 32 32" version="1.1">
<g id="surface1">
<path style=" stroke:none;fill-rule:nonzero;fill:rgb(0%,0%,0%);fill-opacity:1;" d="M 31.316406 26.261719 C 31.039062 26.261719 30.789062 26.101562 30.679688 25.84375 C 30.601562 25.65625 28.621094 21.21875 21.222656 20.339844 C 19.679688 20.152344 17.835938 20.054688 15.59375 20.039062 L 15.59375 25.574219 C 15.59375 25.828125 15.453125 26.058594 15.226562 26.183594 C 15 26.300781 14.730469 26.28125 14.523438 26.140625 L 0.304688 16.570312 C 0.113281 16.445312 0 16.226562 0 16 C 0 15.773438 0.113281 15.5625 0.304688 15.429688 L 14.527344 5.859375 C 14.738281 5.710938 15.003906 5.703125 15.234375 5.824219 C 15.460938 5.945312 15.597656 6.175781 15.597656 6.425781 L 15.597656 11.574219 C 18.691406 11.976562 32 14.371094 32 25.578125 C 32 25.902344 31.769531 26.1875 31.449219 26.253906 C 31.40625 26.261719 31.359375 26.261719 31.316406 26.261719 Z M 31.316406 26.261719 "/>
</g>
</svg>
