<?xml version="1.0" encoding="UTF-8"?>
<svg xmlns="http://www.w3.org/2000/svg" xmlns:xlink="http://www.w3.org/1999/xlink" width="24px" height="24px" viewBox="0 0 24 24" version="1.1">
<g id="surface1">
<path style=" stroke:none;fill-rule:nonzero;fill:rgb(0%,0%,0%);fill-opacity:1;" d="M 5.15625 22.84375 C 5.183594 23.488281 5.714844 24 6.363281 24 L 17.636719 24 C 18.285156 24 18.816406 23.488281 18.84375 22.84375 L 19.648438 5.84375 L 4.351562 5.84375 Z M 14.550781 10.066406 C 14.550781 9.792969 14.769531 9.578125 15.042969 9.578125 L 15.824219 9.578125 C 16.097656 9.578125 16.316406 9.792969 16.316406 10.066406 L 16.316406 19.777344 C 16.316406 20.046875 16.097656 20.269531 15.824219 20.269531 L 15.042969 20.269531 C 14.769531 20.269531 14.550781 20.046875 14.550781 19.777344 Z M 11.117188 10.066406 C 11.117188 9.792969 11.339844 9.578125 11.605469 9.578125 L 12.394531 9.578125 C 12.660156 9.578125 12.882812 9.792969 12.882812 10.066406 L 12.882812 19.777344 C 12.882812 20.046875 12.660156 20.269531 12.394531 20.269531 L 11.605469 20.269531 C 11.339844 20.269531 11.117188 20.046875 11.117188 19.777344 Z M 7.683594 10.066406 C 7.683594 9.792969 7.902344 9.578125 8.175781 9.578125 L 8.957031 9.578125 C 9.230469 9.578125 9.449219 9.792969 9.449219 10.066406 L 9.449219 19.777344 C 9.449219 20.046875 9.230469 20.269531 8.957031 20.269531 L 8.175781 20.269531 C 7.902344 20.269531 7.683594 20.046875 7.683594 19.777344 Z M 7.683594 10.066406 "/>
<path style=" stroke:none;fill-rule:nonzero;fill:rgb(0%,0%,0%);fill-opacity:1;" d="M 20.183594 1.238281 L 14.984375 1.238281 L 14.984375 0.253906 C 14.984375 0.113281 14.871094 0 14.730469 0 L 9.269531 0 C 9.128906 0 9.015625 0.113281 9.015625 0.253906 L 9.015625 1.238281 L 3.816406 1.238281 C 3.394531 1.238281 3.054688 1.574219 3.054688 1.996094 L 3.054688 4.375 L 20.945312 4.375 L 20.945312 1.996094 C 20.945312 1.574219 20.605469 1.238281 20.183594 1.238281 Z M 20.183594 1.238281 "/>
</g>
</svg>
