<?xml version="1.0" encoding="UTF-8"?>
<svg xmlns="http://www.w3.org/2000/svg" xmlns:xlink="http://www.w3.org/1999/xlink" width="32px" height="32px" viewBox="0 0 32 32" version="1.1">
<g id="surface1">
<path style=" stroke:none;fill-rule:nonzero;fill:rgb(0%,0%,0%);fill-opacity:1;" d="M 6.875 30.457031 C 6.910156 31.320312 7.621094 32 8.484375 32 L 23.515625 32 C 24.378906 32 25.089844 31.320312 25.125 30.457031 L 26.199219 7.792969 L 5.800781 7.792969 Z M 19.402344 13.421875 C 19.402344 13.058594 19.695312 12.769531 20.054688 12.769531 L 21.101562 12.769531 C 21.460938 12.769531 21.753906 13.058594 21.753906 13.421875 L 21.753906 26.371094 C 21.753906 26.730469 21.460938 27.023438 21.101562 27.023438 L 20.054688 27.023438 C 19.695312 27.023438 19.402344 26.730469 19.402344 26.371094 Z M 14.824219 13.421875 C 14.824219 13.058594 15.117188 12.769531 15.476562 12.769531 L 16.523438 12.769531 C 16.882812 12.769531 17.175781 13.058594 17.175781 13.421875 L 17.175781 26.371094 C 17.175781 26.730469 16.882812 27.023438 16.523438 27.023438 L 15.476562 27.023438 C 15.117188 27.023438 14.824219 26.730469 14.824219 26.371094 Z M 10.246094 13.421875 C 10.246094 13.058594 10.539062 12.769531 10.898438 12.769531 L 11.945312 12.769531 C 12.304688 12.769531 12.597656 13.058594 12.597656 13.421875 L 12.597656 26.371094 C 12.597656 26.730469 12.304688 27.023438 11.945312 27.023438 L 10.898438 27.023438 C 10.539062 27.023438 10.246094 26.730469 10.246094 26.371094 Z M 10.246094 13.421875 "/>
<path style=" stroke:none;fill-rule:nonzero;fill:rgb(0%,0%,0%);fill-opacity:1;" d="M 26.914062 1.648438 L 19.980469 1.648438 L 19.980469 0.335938 C 19.980469 0.152344 19.828125 0 19.640625 0 L 12.359375 0 C 12.171875 0 12.019531 0.152344 12.019531 0.335938 L 12.019531 1.648438 L 5.085938 1.648438 C 4.527344 1.648438 4.074219 2.101562 4.074219 2.660156 L 4.074219 5.832031 L 27.925781 5.832031 L 27.925781 2.660156 C 27.925781 2.101562 27.472656 1.648438 26.914062 1.648438 Z M 26.914062 1.648438 "/>
</g>
</svg>
