<?xml version="1.0" encoding="UTF-8"?>
<svg xmlns="http://www.w3.org/2000/svg" xmlns:xlink="http://www.w3.org/1999/xlink" width="16px" height="16px" viewBox="0 0 16 16" version="1.1">
<g id="surface1">
<path style=" stroke:none;fill-rule:nonzero;fill:rgb(0%,0%,0%);fill-opacity:1;" d="M 12.519531 5.519531 L 10.128906 5.519531 L 10.128906 6.9375 L 12.519531 6.9375 C 13.230469 6.9375 13.78125 7.300781 13.78125 7.613281 L 13.78125 13.90625 C 13.78125 14.21875 13.230469 14.582031 12.519531 14.582031 L 3.480469 14.582031 C 2.769531 14.582031 2.21875 14.21875 2.21875 13.90625 L 2.21875 7.613281 C 2.21875 7.300781 2.769531 6.9375 3.480469 6.9375 L 5.871094 6.9375 L 5.871094 5.519531 L 3.480469 5.519531 C 1.976562 5.519531 0.800781 6.441406 0.800781 7.613281 L 0.800781 13.90625 C 0.800781 15.082031 1.976562 16 3.480469 16 L 12.519531 16 C 14.023438 16 15.199219 15.078125 15.199219 13.90625 L 15.199219 7.613281 C 15.199219 6.441406 14.023438 5.519531 12.519531 5.519531 Z M 12.519531 5.519531 "/>
<path style=" stroke:none;fill-rule:nonzero;fill:rgb(0%,0%,0%);fill-opacity:1;" d="M 5.902344 3.535156 C 6.082031 3.535156 6.265625 3.464844 6.402344 3.328125 L 7.289062 2.441406 L 7.289062 9.65625 C 7.289062 10.046875 7.609375 10.367188 8 10.367188 C 8.390625 10.367188 8.707031 10.046875 8.707031 9.65625 L 8.707031 2.390625 L 9.644531 3.328125 C 9.785156 3.464844 9.964844 3.535156 10.148438 3.535156 C 10.328125 3.535156 10.507812 3.464844 10.648438 3.328125 C 10.925781 3.050781 10.925781 2.601562 10.648438 2.324219 L 8.53125 0.207031 C 8.390625 0.0703125 8.210938 0 8.027344 0 C 8.027344 0 8.027344 0 8.023438 0 C 8.023438 0 8.019531 0 8.019531 0 C 7.835938 0 7.65625 0.0703125 7.515625 0.207031 L 5.398438 2.324219 C 5.121094 2.601562 5.121094 3.050781 5.398438 3.328125 C 5.539062 3.464844 5.71875 3.535156 5.902344 3.535156 Z M 5.902344 3.535156 "/>
</g>
</svg>
