<?xml version="1.0" encoding="UTF-8"?>
<svg xmlns="http://www.w3.org/2000/svg" xmlns:xlink="http://www.w3.org/1999/xlink" width="16px" height="16px" viewBox="0 0 16 16" version="1.1">
<g id="surface1">
<path style=" stroke:none;fill-rule:nonzero;fill:rgb(0%,0%,0%);fill-opacity:1;" d="M 1.566406 14.179688 L 14.433594 14.179688 C 15.289062 14.179688 15.988281 13.480469 15.988281 12.625 L 15.988281 4.609375 C 15.988281 3.75 15.289062 3.054688 14.433594 3.054688 L 8.65625 3.054688 L 8.386719 2.589844 C 8.25 2.355469 8.054688 2.160156 7.820312 2.027344 C 7.582031 1.890625 7.316406 1.820312 7.046875 1.820312 L 1.566406 1.820312 C 0.710938 1.820312 0.0117188 2.519531 0.0117188 3.375 L 0.0117188 12.625 C 0.0117188 13.480469 0.710938 14.179688 1.566406 14.179688 Z M 1.160156 12.167969 L 1.160156 3.375 C 1.160156 3.148438 1.34375 2.964844 1.566406 2.964844 L 7.046875 2.964844 C 7.191406 2.964844 7.324219 3.042969 7.398438 3.167969 L 7.882812 3.996094 C 7.953125 4.121094 8.089844 4.199219 8.234375 4.199219 L 14.433594 4.199219 C 14.65625 4.199219 14.839844 4.382812 14.839844 4.609375 L 14.839844 12.625 C 14.839844 12.851562 14.65625 13.035156 14.433594 13.035156 L 1.566406 13.035156 C 1.34375 13.035156 1.160156 12.851562 1.160156 12.625 Z M 1.160156 12.167969 "/>
<path style=" stroke:none;fill-rule:nonzero;fill:rgb(0%,0%,0%);fill-opacity:1;" d="M 14.433594 14.191406 L 1.566406 14.191406 C 0.703125 14.191406 0 13.488281 0 12.625 L 0 3.375 C 0 2.511719 0.703125 1.808594 1.566406 1.808594 L 7.046875 1.808594 C 7.320312 1.808594 7.589844 1.878906 7.824219 2.015625 C 8.0625 2.152344 8.261719 2.347656 8.398438 2.585938 L 8.664062 3.039062 L 14.433594 3.039062 C 15.296875 3.039062 16 3.742188 16 4.609375 L 16 12.625 C 16 13.488281 15.296875 14.191406 14.433594 14.191406 Z M 1.566406 1.835938 C 0.71875 1.835938 0.0273438 2.527344 0.0273438 3.375 L 0.0273438 12.625 C 0.0273438 13.472656 0.71875 14.164062 1.566406 14.164062 L 14.433594 14.164062 C 15.28125 14.164062 15.972656 13.472656 15.972656 12.625 L 15.972656 4.609375 C 15.972656 3.757812 15.28125 3.066406 14.433594 3.066406 L 8.648438 3.066406 L 8.375 2.597656 C 8.242188 2.367188 8.046875 2.171875 7.8125 2.039062 C 7.578125 1.90625 7.3125 1.835938 7.046875 1.835938 Z M 14.433594 13.046875 L 1.566406 13.046875 C 1.335938 13.046875 1.144531 12.859375 1.144531 12.625 L 1.144531 3.375 C 1.144531 3.140625 1.335938 2.953125 1.566406 2.953125 L 7.046875 2.953125 C 7.195312 2.953125 7.335938 3.03125 7.410156 3.164062 L 7.894531 3.988281 C 7.964844 4.109375 8.09375 4.183594 8.234375 4.183594 L 14.433594 4.183594 C 14.664062 4.183594 14.855469 4.375 14.855469 4.609375 L 14.855469 12.625 C 14.855469 12.859375 14.664062 13.046875 14.433594 13.046875 Z M 1.566406 2.980469 C 1.347656 2.980469 1.171875 3.15625 1.171875 3.375 L 1.171875 12.625 C 1.171875 12.84375 1.347656 13.019531 1.566406 13.019531 L 14.433594 13.019531 C 14.652344 13.019531 14.828125 12.84375 14.828125 12.625 L 14.828125 4.609375 C 14.828125 4.390625 14.652344 4.210938 14.433594 4.210938 L 8.234375 4.210938 C 8.085938 4.210938 7.945312 4.132812 7.871094 4.003906 L 7.386719 3.175781 C 7.316406 3.054688 7.183594 2.980469 7.046875 2.980469 Z M 1.566406 2.980469 "/>
</g>
</svg>
