<?xml version="1.0" encoding="UTF-8"?>
<svg xmlns="http://www.w3.org/2000/svg" xmlns:xlink="http://www.w3.org/1999/xlink" width="24px" height="24px" viewBox="0 0 24 24" version="1.1">
<g id="surface1">
<path style=" stroke:none;fill-rule:nonzero;fill:rgb(0%,0%,0%);fill-opacity:1;" d="M 2.351562 21.269531 L 21.648438 21.269531 C 22.933594 21.269531 23.980469 20.222656 23.980469 18.9375 L 23.980469 6.910156 C 23.980469 5.625 22.933594 4.578125 21.648438 4.578125 L 12.984375 4.578125 L 12.582031 3.886719 C 12.375 3.535156 12.082031 3.242188 11.726562 3.039062 C 11.375 2.839844 10.972656 2.730469 10.566406 2.730469 L 2.351562 2.730469 C 1.066406 2.730469 0.0195312 3.777344 0.0195312 5.0625 L 0.0195312 18.9375 C 0.0195312 20.222656 1.066406 21.269531 2.351562 21.269531 Z M 1.738281 18.253906 L 1.738281 5.0625 C 1.738281 4.722656 2.011719 4.449219 2.351562 4.449219 L 10.566406 4.449219 C 10.785156 4.449219 10.988281 4.566406 11.097656 4.753906 L 11.824219 5.992188 C 11.933594 6.183594 12.132812 6.296875 12.351562 6.296875 L 21.648438 6.296875 C 21.988281 6.296875 22.261719 6.574219 22.261719 6.910156 L 22.261719 18.9375 C 22.261719 19.277344 21.988281 19.550781 21.648438 19.550781 L 2.351562 19.550781 C 2.011719 19.550781 1.738281 19.277344 1.738281 18.9375 Z M 1.738281 18.253906 "/>
<path style=" stroke:none;fill-rule:nonzero;fill:rgb(0%,0%,0%);fill-opacity:1;" d="M 21.648438 21.289062 L 2.351562 21.289062 C 1.054688 21.289062 0 20.234375 0 18.9375 L 0 5.0625 C 0 3.765625 1.054688 2.710938 2.351562 2.710938 L 10.566406 2.710938 C 10.976562 2.710938 11.382812 2.820312 11.738281 3.023438 C 12.09375 3.226562 12.390625 3.523438 12.597656 3.875 L 12.996094 4.558594 L 21.648438 4.558594 C 22.945312 4.558594 24 5.613281 24 6.910156 L 24 18.9375 C 24 20.234375 22.945312 21.289062 21.648438 21.289062 Z M 2.351562 2.75 C 1.078125 2.75 0.0390625 3.789062 0.0390625 5.0625 L 0.0390625 18.9375 C 0.0390625 20.210938 1.078125 21.25 2.351562 21.25 L 21.648438 21.25 C 22.921875 21.25 23.960938 20.210938 23.960938 18.9375 L 23.960938 6.910156 C 23.960938 5.636719 22.921875 4.601562 21.648438 4.601562 L 12.972656 4.601562 L 12.5625 3.898438 C 12.359375 3.546875 12.066406 3.257812 11.71875 3.058594 C 11.367188 2.855469 10.972656 2.75 10.566406 2.75 Z M 21.648438 19.570312 L 2.351562 19.570312 C 2.003906 19.570312 1.71875 19.285156 1.71875 18.9375 L 1.71875 5.0625 C 1.71875 4.714844 2.003906 4.429688 2.351562 4.429688 L 10.566406 4.429688 C 10.792969 4.429688 11 4.550781 11.113281 4.742188 L 11.839844 5.984375 C 11.945312 6.164062 12.140625 6.277344 12.351562 6.277344 L 21.648438 6.277344 C 21.996094 6.277344 22.28125 6.5625 22.28125 6.910156 L 22.28125 18.9375 C 22.28125 19.285156 21.996094 19.570312 21.648438 19.570312 Z M 2.351562 4.46875 C 2.023438 4.46875 1.757812 4.734375 1.757812 5.0625 L 1.757812 18.9375 C 1.757812 19.265625 2.023438 19.53125 2.351562 19.53125 L 21.648438 19.53125 C 21.976562 19.53125 22.242188 19.265625 22.242188 18.9375 L 22.242188 6.910156 C 22.242188 6.582031 21.976562 6.316406 21.648438 6.316406 L 12.351562 6.316406 C 12.128906 6.316406 11.917969 6.199219 11.804688 6.003906 L 11.082031 4.761719 C 10.972656 4.582031 10.777344 4.46875 10.566406 4.46875 Z M 2.351562 4.46875 "/>
</g>
</svg>
