<?xml version="1.0" encoding="UTF-8"?>
<svg xmlns="http://www.w3.org/2000/svg" xmlns:xlink="http://www.w3.org/1999/xlink" width="32px" height="32px" viewBox="0 0 32 32" version="1.1">
<g id="surface1">
<path style=" stroke:none;fill-rule:nonzero;fill:rgb(0%,0%,0%);fill-opacity:1;" d="M 3.960938 12.039062 C 1.773438 12.039062 0 13.8125 0 16 C 0 18.1875 1.769531 19.960938 3.960938 19.960938 C 6.144531 19.960938 7.921875 18.191406 7.921875 16 C 7.921875 13.8125 6.144531 12.039062 3.960938 12.039062 Z M 16.207031 12.039062 C 14.019531 12.039062 12.242188 13.808594 12.242188 16 C 12.242188 18.1875 14.019531 19.957031 16.207031 19.957031 C 18.390625 19.957031 20.167969 18.191406 20.167969 16 C 20.167969 13.8125 18.390625 12.039062 16.207031 12.039062 Z M 28.042969 12.039062 C 25.855469 12.039062 24.078125 13.8125 24.078125 16 C 24.078125 18.1875 25.851562 19.957031 28.042969 19.957031 C 30.226562 19.957031 32 18.191406 32 16 C 32 13.8125 30.226562 12.039062 28.042969 12.039062 Z M 28.042969 12.039062 "/>
</g>
</svg>
