<?xml version="1.0" encoding="UTF-8"?>
<svg xmlns="http://www.w3.org/2000/svg" xmlns:xlink="http://www.w3.org/1999/xlink" width="24px" height="24px" viewBox="0 0 24 24" version="1.1">
<g id="surface1">
<path style=" stroke:none;fill-rule:nonzero;fill:rgb(0%,0%,0%);fill-opacity:1;" d="M 20.632812 0 L 0 0 L 0 24 L 24 24 L 24 3.367188 Z M 13.199219 1.46875 L 14.667969 1.46875 L 14.667969 5.878906 L 13.199219 5.878906 Z M 6.390625 1.46875 L 11.730469 1.46875 L 11.730469 7.347656 L 16.140625 7.347656 L 16.140625 1.46875 L 17.65625 1.46875 L 17.65625 8.816406 L 6.390625 8.816406 Z M 19.59375 22.53125 L 4.40625 22.53125 L 4.40625 16.164062 L 19.59375 16.164062 Z M 19.59375 14.695312 L 4.40625 14.695312 L 4.40625 13.222656 L 19.59375 13.222656 Z M 22.53125 22.53125 L 21.0625 22.53125 L 21.0625 11.753906 L 2.9375 11.753906 L 2.9375 22.53125 L 1.46875 22.53125 L 1.46875 1.46875 L 4.921875 1.46875 L 4.921875 10.285156 L 19.125 10.285156 L 19.125 1.46875 L 20.023438 1.46875 L 22.53125 3.976562 Z M 22.53125 22.53125 "/>
</g>
</svg>
