<?xml version="1.0" encoding="UTF-8"?>
<svg xmlns="http://www.w3.org/2000/svg" xmlns:xlink="http://www.w3.org/1999/xlink" width="16px" height="16px" viewBox="0 0 16 16" version="1.1">
<g id="surface1">
<path style=" stroke:none;fill-rule:nonzero;fill:rgb(0%,0%,0%);fill-opacity:1;" d="M 13.753906 0 L 0 0 L 0 16 L 16 16 L 16 2.246094 Z M 8.800781 0.980469 L 9.777344 0.980469 L 9.777344 3.917969 L 8.800781 3.917969 Z M 4.261719 0.980469 L 7.820312 0.980469 L 7.820312 4.898438 L 10.761719 4.898438 L 10.761719 0.980469 L 11.769531 0.980469 L 11.769531 5.878906 L 4.261719 5.878906 Z M 13.0625 15.019531 L 2.9375 15.019531 L 2.9375 10.777344 L 13.0625 10.777344 Z M 13.0625 9.796875 L 2.9375 9.796875 L 2.9375 8.816406 L 13.0625 8.816406 Z M 15.019531 15.019531 L 14.042969 15.019531 L 14.042969 7.835938 L 1.957031 7.835938 L 1.957031 15.019531 L 0.980469 15.019531 L 0.980469 0.980469 L 3.28125 0.980469 L 3.28125 6.855469 L 12.75 6.855469 L 12.75 0.980469 L 13.347656 0.980469 L 15.019531 2.652344 Z M 15.019531 15.019531 "/>
</g>
</svg>
