<?xml version="1.0" encoding="UTF-8"?>
<svg xmlns="http://www.w3.org/2000/svg" xmlns:xlink="http://www.w3.org/1999/xlink" width="32px" height="32px" viewBox="0 0 32 32" version="1.1">
<g id="surface1">
<path style=" stroke:none;fill-rule:nonzero;fill:rgb(100%,66.666669%,0%);fill-opacity:1;" d="M 15.980469 31.789062 C 7.265625 31.789062 0.175781 24.699219 0.175781 15.980469 C 0.175781 7.265625 7.265625 0.175781 15.980469 0.175781 C 24.699219 0.175781 31.789062 7.265625 31.789062 15.980469 C 31.789062 24.699219 24.699219 31.789062 15.980469 31.789062 Z M 15.980469 31.789062 "/>
<path style=" stroke:none;fill-rule:nonzero;fill:rgb(100%,100%,100%);fill-opacity:1;" d="M 15.980469 20.363281 C 15.34375 20.363281 14.816406 19.859375 14.789062 19.21875 L 13.6875 8.589844 C 13.585938 7.253906 14.644531 6.113281 15.980469 6.113281 C 17.320312 6.113281 18.378906 7.253906 18.277344 8.589844 L 17.175781 19.21875 C 17.148438 19.859375 16.621094 20.363281 15.980469 20.363281 Z M 15.980469 20.363281 "/>
<path style=" stroke:none;fill-rule:nonzero;fill:rgb(100%,100%,100%);fill-opacity:1;" d="M 17.886719 23.945312 C 17.886719 22.894531 17.035156 22.042969 15.980469 22.042969 C 14.929688 22.042969 14.078125 22.894531 14.078125 23.945312 C 14.078125 24.996094 14.929688 25.847656 15.980469 25.847656 C 17.035156 25.847656 17.886719 24.996094 17.886719 23.945312 Z M 17.886719 23.945312 "/>
</g>
</svg>
