<?xml version="1.0" encoding="UTF-8"?>
<svg xmlns="http://www.w3.org/2000/svg" xmlns:xlink="http://www.w3.org/1999/xlink" width="48px" height="48px" viewBox="0 0 48 48" version="1.1">
<g id="surface1">
<path style=" stroke:none;fill-rule:nonzero;fill:rgb(100%,66.666669%,0%);fill-opacity:1;" d="M 23.972656 47.683594 C 10.898438 47.683594 0.265625 37.046875 0.265625 23.972656 C 0.265625 10.898438 10.898438 0.265625 23.972656 0.265625 C 37.046875 0.265625 47.683594 10.898438 47.683594 23.972656 C 47.683594 37.046875 37.046875 47.683594 23.972656 47.683594 Z M 23.972656 47.683594 "/>
<path style=" stroke:none;fill-rule:nonzero;fill:rgb(100%,100%,100%);fill-opacity:1;" d="M 23.972656 30.542969 C 23.011719 30.542969 22.222656 29.789062 22.183594 28.828125 L 20.53125 12.882812 C 20.378906 10.878906 21.964844 9.171875 23.972656 9.171875 C 25.980469 9.171875 27.566406 10.878906 27.417969 12.882812 L 25.761719 28.828125 C 25.722656 29.789062 24.933594 30.542969 23.972656 30.542969 Z M 23.972656 30.542969 "/>
<path style=" stroke:none;fill-rule:nonzero;fill:rgb(100%,100%,100%);fill-opacity:1;" d="M 26.828125 35.917969 C 26.828125 34.339844 25.550781 33.0625 23.972656 33.0625 C 22.394531 33.0625 21.117188 34.339844 21.117188 35.917969 C 21.117188 37.496094 22.394531 38.773438 23.972656 38.773438 C 25.550781 38.773438 26.828125 37.496094 26.828125 35.917969 Z M 26.828125 35.917969 "/>
</g>
</svg>
